<svg width="498" height="53" viewBox="0 0 498 53" fill="none" xmlns="http://www.w3.org/2000/svg">
<rect x="0.5" y="0.5" width="52" height="52" rx="3.5" fill="#D9D9D9" stroke="url(#paint0_linear_2_29)"/>
<path d="M497.995 24.532C497.995 25.8813 497.394 26.556 496.191 26.556C495.781 26.556 495.399 26.424 495.047 26.16C494.725 25.8667 494.563 25.544 494.563 25.192C494.563 25.0747 494.607 24.8987 494.695 24.664C494.783 24.4 494.827 24.1947 494.827 24.048C494.827 23.6667 494.622 23.476 494.211 23.476C493.859 23.476 493.522 23.6667 493.199 24.048C492.877 24.4 492.715 24.7667 492.715 25.148C492.715 25.236 492.789 25.7347 492.935 26.644C493.082 27.5533 493.155 28.2427 493.155 28.712C493.155 30.7067 492.466 32.3787 491.087 33.728C489.709 35.0773 487.993 35.752 485.939 35.752C485.411 35.752 484.443 35.532 483.035 35.092C482.654 34.9747 482.405 34.916 482.287 34.916C481.671 34.916 481.114 35.1653 480.615 35.664C480.117 36.1627 479.867 36.7053 479.867 37.292C479.867 38.8173 480.791 39.58 482.639 39.58C483.343 39.58 484.473 39.448 486.027 39.184C487.23 38.9787 488.33 38.876 489.327 38.876C491.117 38.876 492.51 39.3453 493.507 40.284C494.534 41.2227 495.047 42.528 495.047 44.2C495.047 46.7227 493.962 48.82 491.791 50.492C489.65 52.164 486.937 53 483.651 53C481.217 53 479.295 52.5013 477.887 51.504C476.509 50.536 475.819 49.1867 475.819 47.456C475.819 45.784 476.465 44.5227 477.755 43.672C478.401 43.2613 479.427 42.8947 480.835 42.572C478.753 41.7507 477.711 40.4893 477.711 38.788C477.711 36.676 479.061 35.2093 481.759 34.388C479.999 33.0093 479.119 31.1907 479.119 28.932C479.119 26.82 479.794 25.1333 481.143 23.872C482.493 22.5813 484.267 21.936 486.467 21.936C487.67 21.936 488.638 22.0973 489.371 22.42C490.134 22.7427 491.014 23.388 492.011 24.356C492.95 22.9773 494.109 22.288 495.487 22.288C497.159 22.288 497.995 23.036 497.995 24.532ZM489.811 28.888C489.811 24.6347 488.638 22.508 486.291 22.508C484.003 22.508 482.859 24.488 482.859 28.448C482.859 32.9067 484.077 35.136 486.511 35.136C488.711 35.136 489.811 33.0533 489.811 28.888ZM493.199 45.74C493.199 43.3053 491.762 42.088 488.887 42.088C488.066 42.088 486.849 42.22 485.235 42.484C483.651 42.748 482.463 42.88 481.671 42.88C480.175 43.672 479.427 45.0653 479.427 47.06C479.427 48.556 479.955 49.7587 481.011 50.668C482.097 51.5773 483.519 52.032 485.279 52.032C487.509 52.032 489.386 51.416 490.911 50.184C492.437 48.9813 493.199 47.5 493.199 45.74Z" fill="black"/>
<path d="M474.84 41.384C474.84 41.6187 474.62 41.736 474.18 41.736H473.652C473.124 41.6773 472.405 41.648 471.496 41.648C468.621 41.648 466.92 41.6773 466.392 41.736H466.084C465.703 41.736 465.512 41.6333 465.512 41.428C465.512 41.2813 465.585 41.1933 465.732 41.164C465.908 41.1347 466.48 41.1053 467.448 41.076C468.005 41.0467 468.328 40.9733 468.416 40.856C468.504 40.7093 468.548 40.2253 468.548 39.404V30.956C468.548 27.7587 468.431 25.852 468.196 25.236C467.697 23.916 466.7 23.256 465.204 23.256C463.737 23.256 462.505 23.9013 461.508 25.192C461.215 25.5733 461.068 26.1013 461.068 26.776L461.112 40.504C461.112 40.856 461.42 41.0467 462.036 41.076L463.356 41.12C463.649 41.12 463.796 41.2227 463.796 41.428C463.796 41.6333 463.62 41.736 463.268 41.736H462.564C461.919 41.6773 460.892 41.648 459.484 41.648C459.161 41.648 458.457 41.6627 457.372 41.692C456.316 41.7213 455.7 41.736 455.524 41.736H455.26C454.82 41.736 454.6 41.6333 454.6 41.428C454.6 41.2227 454.864 41.0907 455.392 41.032C455.773 41.032 456.14 41.032 456.492 41.032C456.932 41.032 457.196 40.9293 457.284 40.724L457.416 40.064V30.472C457.416 27.128 457.387 25.28 457.328 24.928C457.269 24.576 456.903 24.4 456.228 24.4C456.023 24.4 455.671 24.4293 455.172 24.488H454.952C454.365 24.488 454.072 24.3853 454.072 24.18C454.072 23.916 454.38 23.784 454.996 23.784C455.876 23.7547 456.829 23.5933 457.856 23.3C458.883 23.0067 459.601 22.6693 460.012 22.288C460.276 22.0533 460.481 21.936 460.628 21.936C460.833 21.936 460.936 22.2147 460.936 22.772V24.884C462.461 22.9187 464.427 21.936 466.832 21.936C468.944 21.936 470.469 22.7133 471.408 24.268C471.936 25.148 472.2 26.82 472.2 29.284V39.316C472.2 40.2547 472.244 40.768 472.332 40.856C472.508 41.032 472.933 41.12 473.608 41.12C473.696 41.12 473.857 41.1053 474.092 41.076H474.4C474.693 41.076 474.84 41.1787 474.84 41.384Z" fill="black"/>
<path d="M452.61 40.152C452.61 40.3574 452.287 40.4747 451.642 40.504C449.354 40.6507 447.344 41.1494 445.614 42C445.496 42.0587 445.394 42.088 445.306 42.088C445.13 42.088 445.042 41.9707 445.042 41.736L445.086 39.272C443.736 41.208 441.844 42.176 439.41 42.176C437.239 42.176 435.684 41.5454 434.746 40.284C434.364 39.756 434.13 39.272 434.042 38.832C433.983 38.392 433.954 37.204 433.954 35.268V25.192C433.954 24.1654 433.895 23.564 433.778 23.388C433.66 23.212 433.264 23.1094 432.59 23.08L432.018 23.124C431.226 23.1827 430.83 23.0654 430.83 22.772C430.83 22.5667 431.079 22.464 431.578 22.464C432.106 22.464 432.868 22.4934 433.866 22.552C434.364 22.5814 434.658 22.596 434.746 22.596C435.772 22.596 436.726 22.552 437.606 22.464V34.74C437.606 36.9987 437.752 38.4947 438.046 39.228C438.515 40.372 439.468 40.944 440.906 40.944C442.46 40.944 443.604 40.2987 444.338 39.008C444.866 38.0694 445.13 36.5734 445.13 34.52V27.7C445.13 26.7027 445.115 25.9547 445.086 25.456L444.998 24.004C444.968 23.564 444.866 23.3147 444.69 23.256C444.543 23.168 444.22 23.124 443.722 23.124C442.49 23.1534 441.874 23.0214 441.874 22.728C441.874 22.552 442.182 22.464 442.798 22.464H443.194C443.428 22.4934 444.206 22.508 445.526 22.508C447.286 22.508 448.371 22.4934 448.782 22.464V34.74C448.782 36.852 448.826 38.1867 448.914 38.744C449.002 39.3014 449.222 39.624 449.574 39.712C449.955 39.8 450.791 39.844 452.082 39.844C452.434 39.844 452.61 39.9467 452.61 40.152Z" fill="black"/>
<path d="M430.118 39.052C430.118 39.316 429.751 39.7853 429.018 40.46C427.757 41.604 426.261 42.176 424.53 42.176C422.917 42.176 421.699 41.7653 420.878 40.944C420.409 40.4747 420.174 39.096 420.174 36.808V23.696C420.145 23.4027 419.983 23.2413 419.69 23.212H418.018C417.373 23.212 417.05 23.1093 417.05 22.904C417.05 22.6987 417.211 22.5813 417.534 22.552C419.822 22.3467 421.611 21.232 422.902 19.208C423.078 18.944 423.298 18.812 423.562 18.812C423.767 18.812 423.87 18.9147 423.87 19.12V19.296C423.841 19.4427 423.826 19.692 423.826 20.044C423.826 21.276 423.885 22.068 424.002 22.42C424.266 22.4787 424.706 22.508 425.322 22.508C426.935 22.508 428.006 22.4347 428.534 22.288C428.651 22.2587 428.754 22.244 428.842 22.244C429.077 22.244 429.194 22.376 429.194 22.64C429.194 23.08 428.006 23.3 425.63 23.3C425.219 23.3 424.618 23.2853 423.826 23.256V31.396C423.826 35.5027 423.929 38.084 424.134 39.14C424.339 40.1667 425.014 40.68 426.158 40.68C427.126 40.68 428.211 40.1373 429.414 39.052C429.531 38.9053 429.663 38.832 429.81 38.832C430.015 38.832 430.118 38.9053 430.118 39.052Z" fill="black"/>
<path d="M419.748 13.972C419.748 14.588 419.558 15.1014 419.176 15.512C418.824 15.8934 418.355 16.084 417.768 16.084C417.211 16.084 416.742 15.908 416.36 15.556C415.979 15.204 415.788 14.764 415.788 14.236C415.788 13.796 415.979 13.2827 416.36 12.696C416.448 12.5494 416.492 12.4174 416.492 12.3C416.492 11.6254 416.008 11.288 415.04 11.288C413.398 11.288 412.312 12.344 411.784 14.456C411.52 15.5707 411.388 17.5214 411.388 20.308V22.464H414.292C414.879 22.464 415.172 22.596 415.172 22.86C415.172 23.124 414.791 23.256 414.028 23.256H411.388V40.46C411.388 40.8707 411.799 41.076 412.62 41.076C413.882 41.0467 414.571 41.1054 414.688 41.252C414.718 41.2814 414.732 41.34 414.732 41.428C414.732 41.6334 414.556 41.736 414.204 41.736C414.028 41.736 413.882 41.7214 413.764 41.692L410.156 41.648L405.36 41.736C404.832 41.736 404.568 41.6334 404.568 41.428C404.568 41.1934 404.774 41.076 405.184 41.076C406.651 41.076 407.458 40.988 407.604 40.812C407.663 40.7534 407.692 40.6654 407.692 40.548L407.736 39.976V23.256C406.651 23.256 406.02 23.2414 405.844 23.212C405.668 23.1827 405.58 23.0654 405.58 22.86C405.58 22.596 405.844 22.464 406.372 22.464H407.78C407.898 18.7387 408.396 16.0547 409.276 14.412C410.626 11.8894 412.65 10.628 415.348 10.628C416.639 10.628 417.695 10.936 418.516 11.552C419.338 12.168 419.748 12.9747 419.748 13.972Z" fill="black"/>
<path d="M398.849 13.972C398.849 15.292 398.189 15.952 396.869 15.952C396.312 15.952 395.843 15.776 395.461 15.424C395.08 15.0427 394.889 14.588 394.889 14.06C394.889 12.6813 395.549 11.992 396.869 11.992C398.189 11.992 398.849 12.652 398.849 13.972ZM402.149 41.384C402.149 41.648 401.9 41.78 401.401 41.78C401.431 41.78 401.079 41.7507 400.345 41.692C399.465 41.6333 398.732 41.604 398.145 41.604L393.569 41.692C393.423 41.7213 393.247 41.736 393.041 41.736C392.719 41.736 392.557 41.6333 392.557 41.428C392.557 41.1347 392.851 40.988 393.437 40.988C394.552 40.9587 395.153 40.8853 395.241 40.768C395.359 40.6213 395.417 40.0053 395.417 38.92L395.373 25.588C395.344 24.8547 395.3 24.4293 395.241 24.312C395.212 24.1653 395.036 24.092 394.713 24.092L393.437 24.136C393.32 24.1653 393.173 24.18 392.997 24.18C392.675 24.18 392.513 24.0627 392.513 23.828C392.513 23.6227 392.763 23.5053 393.261 23.476C395.227 23.388 396.913 22.9187 398.321 22.068L398.761 21.804C398.996 22.244 399.113 23.0507 399.113 24.224C399.113 24.1653 399.113 24.312 399.113 24.664C399.084 25.016 399.069 25.588 399.069 26.38V38.392C399.069 39.5653 399.084 40.2547 399.113 40.46C399.172 40.6653 399.333 40.7973 399.597 40.856C400.037 40.9733 400.683 41.032 401.533 41.032C401.944 41.032 402.149 41.1493 402.149 41.384Z" fill="black"/>
<path d="M391.009 39.052C391.009 39.316 390.643 39.7853 389.909 40.46C388.648 41.604 387.152 42.176 385.421 42.176C383.808 42.176 382.591 41.7653 381.769 40.944C381.3 40.4747 381.065 39.096 381.065 36.808V23.696C381.036 23.4027 380.875 23.2413 380.581 23.212H378.909C378.264 23.212 377.941 23.1093 377.941 22.904C377.941 22.6987 378.103 22.5813 378.425 22.552C380.713 22.3467 382.503 21.232 383.793 19.208C383.969 18.944 384.189 18.812 384.453 18.812C384.659 18.812 384.761 18.9147 384.761 19.12V19.296C384.732 19.4427 384.717 19.692 384.717 20.044C384.717 21.276 384.776 22.068 384.893 22.42C385.157 22.4787 385.597 22.508 386.213 22.508C387.827 22.508 388.897 22.4347 389.425 22.288C389.543 22.2587 389.645 22.244 389.733 22.244C389.968 22.244 390.085 22.376 390.085 22.64C390.085 23.08 388.897 23.3 386.521 23.3C386.111 23.3 385.509 23.2853 384.717 23.256V31.396C384.717 35.5027 384.82 38.084 385.025 39.14C385.231 40.1667 385.905 40.68 387.049 40.68C388.017 40.68 389.103 40.1373 390.305 39.052C390.423 38.9053 390.555 38.832 390.701 38.832C390.907 38.832 391.009 38.9053 391.009 39.052Z" fill="black"/>
<path d="M375.079 33.068C375.079 35.5907 374.111 37.7467 372.175 39.536C370.269 41.296 367.966 42.176 365.267 42.176C363.683 42.176 361.791 41.692 359.591 40.724C359.005 40.46 358.565 40.328 358.271 40.328C357.919 40.328 357.699 40.7533 357.611 41.604C357.582 42.044 357.391 42.264 357.039 42.264C356.746 42.264 356.599 42.088 356.599 41.736C356.599 41.5013 356.614 41.3253 356.643 41.208C356.878 39.4187 356.995 37.7613 356.995 36.236C356.995 35.9427 356.966 35.1213 356.907 33.772C356.878 33.596 356.863 33.3613 356.863 33.068C356.863 32.628 357.039 32.408 357.391 32.408C357.685 32.408 357.89 32.76 358.007 33.464C358.77 38.6853 361.249 41.296 365.443 41.296C367.233 41.296 368.611 40.7973 369.579 39.8C370.577 38.7733 371.075 37.336 371.075 35.488C371.075 33.8453 370.591 32.452 369.623 31.308C368.685 30.1347 367.057 28.976 364.739 27.832C361.953 26.4533 360.017 25.1187 358.931 23.828C357.846 22.5373 357.303 20.9387 357.303 19.032C357.303 16.5973 358.081 14.588 359.635 13.004C361.219 11.42 363.214 10.628 365.619 10.628C366.617 10.628 367.995 10.9653 369.755 11.64C370.371 11.8747 370.826 11.992 371.119 11.992C371.442 11.992 371.647 11.9333 371.735 11.816C371.853 11.6987 371.955 11.3907 372.043 10.892C372.102 10.5987 372.263 10.452 372.527 10.452C372.821 10.452 372.967 10.628 372.967 10.98C372.967 11.2147 372.953 11.3907 372.923 11.508C372.835 12.212 372.791 13.0627 372.791 14.06C372.791 15.468 372.865 16.5827 373.011 17.404L373.055 18.108C373.085 18.4307 372.953 18.592 372.659 18.592C372.337 18.592 372.117 18.2547 371.999 17.58C371.677 15.8493 370.914 14.412 369.711 13.268C368.509 12.0947 367.159 11.508 365.663 11.508C364.197 11.508 363.023 11.9773 362.143 12.916C361.293 13.8547 360.867 15.1307 360.867 16.744C360.867 18.6213 361.498 20.132 362.759 21.276C363.463 21.9213 364.989 22.8307 367.335 24.004C370.093 25.3827 372.073 26.7907 373.275 28.228C374.478 29.636 375.079 31.2493 375.079 33.068Z" fill="black"/>
<path d="M343.452 41.384C343.452 41.6187 343.232 41.736 342.792 41.736H342.264C341.736 41.6773 341.017 41.648 340.108 41.648C337.233 41.648 335.532 41.6773 335.004 41.736H334.696C334.315 41.736 334.124 41.6333 334.124 41.428C334.124 41.2813 334.197 41.1933 334.344 41.164C334.52 41.1347 335.092 41.1053 336.06 41.076C336.617 41.0467 336.94 40.9733 337.028 40.856C337.116 40.7093 337.16 40.2253 337.16 39.404V30.956C337.16 27.7587 337.043 25.852 336.808 25.236C336.309 23.916 335.312 23.256 333.816 23.256C332.349 23.256 331.117 23.9013 330.12 25.192C329.827 25.5733 329.68 26.1013 329.68 26.776L329.724 40.504C329.724 40.856 330.032 41.0467 330.648 41.076L331.968 41.12C332.261 41.12 332.408 41.2227 332.408 41.428C332.408 41.6333 332.232 41.736 331.88 41.736H331.176C330.531 41.6773 329.504 41.648 328.096 41.648C327.773 41.648 327.069 41.6627 325.984 41.692C324.928 41.7213 324.312 41.736 324.136 41.736H323.872C323.432 41.736 323.212 41.6333 323.212 41.428C323.212 41.2227 323.476 41.0907 324.004 41.032C324.385 41.032 324.752 41.032 325.104 41.032C325.544 41.032 325.808 40.9293 325.896 40.724L326.028 40.064V30.472C326.028 27.128 325.999 25.28 325.94 24.928C325.881 24.576 325.515 24.4 324.84 24.4C324.635 24.4 324.283 24.4293 323.784 24.488H323.564C322.977 24.488 322.684 24.3853 322.684 24.18C322.684 23.916 322.992 23.784 323.608 23.784C324.488 23.7547 325.441 23.5933 326.468 23.3C327.495 23.0067 328.213 22.6693 328.624 22.288C328.888 22.0533 329.093 21.936 329.24 21.936C329.445 21.936 329.548 22.2147 329.548 22.772V24.884C331.073 22.9187 333.039 21.936 335.444 21.936C337.556 21.936 339.081 22.7133 340.02 24.268C340.548 25.148 340.812 26.82 340.812 29.284V39.316C340.812 40.2547 340.856 40.768 340.944 40.856C341.12 41.032 341.545 41.12 342.22 41.12C342.308 41.12 342.469 41.1053 342.704 41.076H343.012C343.305 41.076 343.452 41.1787 343.452 41.384Z" fill="black"/>
<path d="M319.662 36.852C319.662 37.1453 319.427 37.6733 318.958 38.436C318.518 39.1693 318.063 39.7707 317.594 40.24C316.332 41.5307 314.646 42.176 312.534 42.176C309.894 42.176 307.679 41.2227 305.89 39.316C304.13 37.4093 303.25 35.048 303.25 32.232C303.25 29.2987 304.086 26.8493 305.758 24.884C307.459 22.9187 309.571 21.936 312.094 21.936C314.176 21.936 315.922 22.552 317.33 23.784C318.738 24.9867 319.486 26.5413 319.574 28.448C318.635 28.5947 317.388 28.6533 315.834 28.624L312.754 28.58C312.548 28.58 310.788 28.624 307.474 28.712C307.327 29.68 307.254 30.604 307.254 31.484C307.254 34.4467 307.811 36.7347 308.926 38.348C310.07 39.932 311.668 40.724 313.722 40.724C314.895 40.724 315.834 40.46 316.538 39.932C317.242 39.404 318.004 38.392 318.826 36.896C318.943 36.6613 319.104 36.544 319.31 36.544C319.544 36.544 319.662 36.6467 319.662 36.852ZM315.834 27.876C315.716 24.356 314.455 22.596 312.05 22.596C309.674 22.596 308.192 24.356 307.606 27.876H315.834Z" fill="black"/>
<path d="M301.394 39.052C301.394 39.316 301.027 39.7853 300.294 40.46C299.032 41.604 297.536 42.176 295.806 42.176C294.192 42.176 292.975 41.7653 292.154 40.944C291.684 40.4747 291.45 39.096 291.45 36.808V23.696C291.42 23.4027 291.259 23.2413 290.966 23.212H289.294C288.648 23.212 288.326 23.1093 288.326 22.904C288.326 22.6987 288.487 22.5813 288.81 22.552C291.098 22.3467 292.887 21.232 294.178 19.208C294.354 18.944 294.574 18.812 294.838 18.812C295.043 18.812 295.146 18.9147 295.146 19.12V19.296C295.116 19.4427 295.102 19.692 295.102 20.044C295.102 21.276 295.16 22.068 295.278 22.42C295.542 22.4787 295.982 22.508 296.598 22.508C298.211 22.508 299.282 22.4347 299.81 22.288C299.927 22.2587 300.03 22.244 300.118 22.244C300.352 22.244 300.47 22.376 300.47 22.64C300.47 23.08 299.282 23.3 296.906 23.3C296.495 23.3 295.894 23.2853 295.102 23.256V31.396C295.102 35.5027 295.204 38.084 295.41 39.14C295.615 40.1667 296.29 40.68 297.434 40.68C298.402 40.68 299.487 40.1373 300.69 39.052C300.807 38.9053 300.939 38.832 301.086 38.832C301.291 38.832 301.394 38.9053 301.394 39.052Z" fill="black"/>
<path d="M286.703 24.928C286.703 25.6027 286.497 26.16 286.087 26.6C285.676 27.04 285.148 27.26 284.503 27.26C283.975 27.26 283.535 27.1133 283.183 26.82C282.831 26.4973 282.655 26.1013 282.655 25.632C282.655 25.2213 282.787 24.8693 283.051 24.576C283.315 24.2827 283.447 24.0773 283.447 23.96C283.447 23.52 283.124 23.3 282.479 23.3C281.657 23.3 280.953 23.8133 280.367 24.84C279.692 26.0427 279.355 28.272 279.355 31.528V40.24C279.355 40.592 279.472 40.812 279.707 40.9C279.971 40.988 280.733 41.0467 281.995 41.076C282.317 41.1347 282.479 41.252 282.479 41.428C282.479 41.6333 282.288 41.736 281.907 41.736C281.232 41.736 280.601 41.7213 280.015 41.692C279.428 41.6627 278.313 41.648 276.671 41.648C275.82 41.648 275.204 41.6627 274.823 41.692C274.441 41.7213 273.957 41.736 273.371 41.736C272.901 41.736 272.667 41.6333 272.667 41.428C272.667 41.2227 272.857 41.12 273.239 41.12H273.855C274.852 41.12 275.439 41.0027 275.615 40.768C275.673 40.6507 275.703 40.108 275.703 39.14V27.04C275.703 25.4267 275.453 24.5027 274.955 24.268C274.485 24.004 273.723 23.8573 272.667 23.828C272.315 23.828 272.139 23.7253 272.139 23.52C272.139 23.3147 272.285 23.212 272.579 23.212H272.887C273.327 23.212 273.767 23.2413 274.207 23.3C274.647 23.3293 274.837 23.344 274.779 23.344C275.864 23.344 277.067 23.036 278.387 22.42L278.959 22.156L279.311 22.024C279.428 22.728 279.487 23.432 279.487 24.136V25.016C280.425 22.9627 281.745 21.936 283.447 21.936C284.385 21.936 285.163 22.2293 285.779 22.816C286.395 23.3733 286.703 24.0773 286.703 24.928Z" fill="black"/>
<path d="M269.214 32.144C269.214 34.9893 268.349 37.38 266.618 39.316C264.887 41.2227 262.731 42.176 260.15 42.176C257.481 42.176 255.251 41.2227 253.462 39.316C251.673 37.38 250.778 34.9893 250.778 32.144C250.778 29.2107 251.643 26.776 253.374 24.84C255.134 22.904 257.319 21.936 259.93 21.936C262.57 21.936 264.77 22.9187 266.53 24.884C268.319 26.82 269.214 29.24 269.214 32.144ZM265.21 32.1C265.21 28.8733 264.711 26.3653 263.714 24.576C262.981 23.256 261.749 22.596 260.018 22.596C258.375 22.596 257.085 23.4467 256.146 25.148C255.237 26.82 254.782 29.152 254.782 32.144C254.782 35.1067 255.266 37.424 256.234 39.096C257.231 40.7387 258.61 41.56 260.37 41.56C261.719 41.56 262.717 41.0467 263.362 40.02C264.594 38.084 265.21 35.444 265.21 32.1Z" fill="black"/>
<path d="M246.866 41.252C246.866 41.516 246.587 41.648 246.03 41.648L239.958 41.604C239.547 41.604 238.946 41.6187 238.154 41.648C237.362 41.6773 236.775 41.692 236.394 41.692C235.807 41.692 235.514 41.5747 235.514 41.34C235.514 41.1053 236.203 40.944 237.582 40.856C238.315 40.7973 238.74 40.68 238.858 40.504C238.975 40.2987 239.034 39.6093 239.034 38.436V25.588H225.79V38.04C225.79 39.36 225.892 40.1373 226.098 40.372C226.303 40.6067 226.992 40.768 228.166 40.856C228.928 40.9147 229.31 41.0467 229.31 41.252C229.31 41.516 229.016 41.648 228.43 41.648H228.034C227.33 41.648 226.582 41.6333 225.79 41.604C225.027 41.5747 224.572 41.56 224.426 41.56C224.015 41.56 223.399 41.5747 222.578 41.604C221.756 41.6333 220.524 41.648 218.882 41.648C218.295 41.648 218.002 41.5307 218.002 41.296C218.002 41.0613 218.295 40.9147 218.882 40.856C219.263 40.8267 219.659 40.7973 220.07 40.768C220.715 40.7093 221.126 40.5627 221.302 40.328C221.39 40.1813 221.434 39.36 221.434 37.864V14.632C221.434 13.312 221.36 12.5347 221.214 12.3C221.096 12.0653 220.642 11.9333 219.85 11.904C218.94 11.8453 218.398 11.8013 218.222 11.772C218.075 11.7427 218.002 11.6253 218.002 11.42C218.002 11.1853 218.192 11.068 218.574 11.068C218.691 11.068 218.94 11.0827 219.322 11.112C220.055 11.1707 221.786 11.2 224.514 11.2C226.01 11.2 227.051 11.1853 227.638 11.156C227.843 11.1267 228.107 11.112 228.43 11.112C228.958 11.112 229.222 11.2587 229.222 11.552C229.222 11.816 228.738 11.948 227.77 11.948C226.831 11.948 226.259 12.0653 226.054 12.3C225.878 12.5053 225.79 13.1947 225.79 14.368V24.488H239.034V15.028C239.034 13.4733 238.916 12.564 238.682 12.3C238.447 12.0067 237.626 11.8747 236.218 11.904C235.778 11.904 235.558 11.772 235.558 11.508C235.558 11.244 235.807 11.112 236.306 11.112H236.526C236.936 11.112 237.655 11.112 238.682 11.112C239.738 11.1413 240.53 11.156 241.058 11.156C242.847 11.156 244.05 11.1413 244.666 11.112C245.311 11.0827 245.722 11.068 245.898 11.068C246.514 11.068 246.822 11.2 246.822 11.464C246.822 11.728 246.176 11.8747 244.886 11.904C244.504 11.904 244.226 11.9333 244.05 11.992C243.756 12.08 243.566 12.2413 243.478 12.476C243.419 12.7107 243.39 13.4 243.39 14.544V37.952C243.39 39.36 243.463 40.1813 243.61 40.416C243.903 40.7387 244.754 40.9 246.162 40.9C246.631 40.8413 246.866 40.9587 246.866 41.252Z" fill="black"/>
<path d="M206.794 39.052C206.794 39.316 206.427 39.7853 205.694 40.46C204.432 41.604 202.936 42.176 201.206 42.176C199.592 42.176 198.375 41.7653 197.554 40.944C197.084 40.4747 196.85 39.096 196.85 36.808V23.696C196.82 23.4027 196.659 23.2413 196.366 23.212H194.694C194.048 23.212 193.726 23.1093 193.726 22.904C193.726 22.6987 193.887 22.5813 194.21 22.552C196.498 22.3467 198.287 21.232 199.578 19.208C199.754 18.944 199.974 18.812 200.238 18.812C200.443 18.812 200.546 18.9147 200.546 19.12V19.296C200.516 19.4427 200.502 19.692 200.502 20.044C200.502 21.276 200.56 22.068 200.678 22.42C200.942 22.4787 201.382 22.508 201.998 22.508C203.611 22.508 204.682 22.4347 205.21 22.288C205.327 22.2587 205.43 22.244 205.518 22.244C205.752 22.244 205.87 22.376 205.87 22.64C205.87 23.08 204.682 23.3 202.306 23.3C201.895 23.3 201.294 23.2853 200.502 23.256V31.396C200.502 35.5027 200.604 38.084 200.81 39.14C201.015 40.1667 201.69 40.68 202.834 40.68C203.802 40.68 204.887 40.1373 206.09 39.052C206.207 38.9053 206.339 38.832 206.486 38.832C206.691 38.832 206.794 38.9053 206.794 39.052Z" fill="black"/>
<path d="M192.571 40.152C192.571 40.3574 192.249 40.4747 191.603 40.504C189.315 40.6507 187.306 41.1494 185.575 42C185.458 42.0587 185.355 42.088 185.267 42.088C185.091 42.088 185.003 41.9707 185.003 41.736L185.047 39.272C183.698 41.208 181.806 42.176 179.371 42.176C177.201 42.176 175.646 41.5454 174.707 40.284C174.326 39.756 174.091 39.272 174.003 38.832C173.945 38.392 173.915 37.204 173.915 35.268V25.192C173.915 24.1654 173.857 23.564 173.739 23.388C173.622 23.212 173.226 23.1094 172.551 23.08L171.979 23.124C171.187 23.1827 170.791 23.0654 170.791 22.772C170.791 22.5667 171.041 22.464 171.539 22.464C172.067 22.464 172.83 22.4934 173.827 22.552C174.326 22.5814 174.619 22.596 174.707 22.596C175.734 22.596 176.687 22.552 177.567 22.464V34.74C177.567 36.9987 177.714 38.4947 178.007 39.228C178.477 40.372 179.43 40.944 180.867 40.944C182.422 40.944 183.566 40.2987 184.299 39.008C184.827 38.0694 185.091 36.5734 185.091 34.52V27.7C185.091 26.7027 185.077 25.9547 185.047 25.456L184.959 24.004C184.93 23.564 184.827 23.3147 184.651 23.256C184.505 23.168 184.182 23.124 183.683 23.124C182.451 23.1534 181.835 23.0214 181.835 22.728C181.835 22.552 182.143 22.464 182.759 22.464H183.155C183.39 22.4934 184.167 22.508 185.487 22.508C187.247 22.508 188.333 22.4934 188.743 22.464V34.74C188.743 36.852 188.787 38.1867 188.875 38.744C188.963 39.3014 189.183 39.624 189.535 39.712C189.917 39.8 190.753 39.844 192.043 39.844C192.395 39.844 192.571 39.9467 192.571 40.152Z" fill="black"/>
<path d="M169.246 41.384C169.246 41.6187 168.997 41.736 168.498 41.736C168.439 41.736 168.117 41.7213 167.53 41.692C166.973 41.6627 166.21 41.648 165.242 41.648C165.154 41.648 163.599 41.6773 160.578 41.736C160.197 41.736 160.006 41.6333 160.006 41.428C160.006 41.1933 160.167 41.076 160.49 41.076H160.842L161.942 41.032C162.382 41.0027 162.631 40.9 162.69 40.724C162.778 40.548 162.822 39.932 162.822 38.876V27.964C162.822 26.2627 162.587 25.06 162.118 24.356C161.678 23.6227 160.915 23.256 159.83 23.256C159.067 23.256 158.349 23.4907 157.674 23.96C157.029 24.4 156.574 24.972 156.31 25.676C156.193 26.116 156.134 27.744 156.134 30.56V38.876C156.134 39.844 156.149 40.4013 156.178 40.548C156.266 40.9 156.53 41.076 156.97 41.076H158.246C158.627 41.076 158.818 41.1933 158.818 41.428C158.818 41.6333 158.598 41.736 158.158 41.736H157.85C157.557 41.6773 156.559 41.648 154.858 41.648C154.271 41.648 153.479 41.6627 152.482 41.692C151.514 41.7213 150.927 41.736 150.722 41.736H150.238C149.886 41.736 149.71 41.6187 149.71 41.384C149.71 41.2373 149.798 41.1493 149.974 41.12C150.15 41.0907 150.737 41.076 151.734 41.076C152.203 41.0467 152.453 40.9 152.482 40.636L152.526 40.02V27.744C152.526 26.0427 152.306 24.8693 151.866 24.224C151.455 23.5787 150.707 23.256 149.622 23.256C148.537 23.256 147.627 23.5933 146.894 24.268C146.19 24.9427 145.838 25.7933 145.838 26.82V39.316C145.838 40.196 145.897 40.724 146.014 40.9C146.161 41.0467 146.601 41.12 147.334 41.12H147.686C147.862 41.0907 148.023 41.076 148.17 41.076C148.493 41.076 148.654 41.1933 148.654 41.428C148.654 41.6333 148.463 41.736 148.082 41.736H147.642C146.938 41.648 145.838 41.6187 144.342 41.648L140.03 41.736C139.619 41.736 139.414 41.6187 139.414 41.384C139.414 41.1787 139.605 41.076 139.986 41.076C141.101 41.076 141.746 41.032 141.922 40.944C142.098 40.8267 142.201 40.636 142.23 40.372V28.932C142.23 26.732 142.186 25.4413 142.098 25.06C142.01 24.6787 141.585 24.488 140.822 24.488H140.206C139.942 24.5173 139.663 24.532 139.37 24.532C138.989 24.532 138.798 24.4293 138.798 24.224C138.798 24.048 138.857 23.9453 138.974 23.916C139.121 23.8867 139.605 23.8427 140.426 23.784C141.101 23.7547 141.937 23.5787 142.934 23.256C143.961 22.9333 144.547 22.6547 144.694 22.42C145.017 22.0973 145.251 21.936 145.398 21.936C145.545 21.936 145.633 22.0533 145.662 22.288C145.691 22.5227 145.721 23.344 145.75 24.752C146.923 22.8747 148.727 21.936 151.162 21.936C153.773 21.936 155.357 22.9187 155.914 24.884C157.058 22.9187 158.891 21.936 161.414 21.936C163.585 21.936 165.051 22.7133 165.814 24.268C166.225 25.0893 166.43 26.4533 166.43 28.36V39.228C166.43 40.2253 166.474 40.7827 166.562 40.9C166.679 40.988 167.149 41.0613 167.97 41.12L168.762 41.076C169.085 41.0467 169.246 41.1493 169.246 41.384Z" fill="black"/>
<path d="M136.582 41.34C136.582 41.604 136.392 41.736 136.01 41.736H135.482C135.424 41.736 134.646 41.7067 133.15 41.648L131.786 41.604C131.552 41.604 130.378 41.648 128.266 41.736C128.09 41.7653 127.914 41.78 127.738 41.78C127.298 41.8093 127.078 41.6773 127.078 41.384C127.078 41.1787 127.24 41.076 127.562 41.076H128.706C129.528 41.076 129.938 40.9 129.938 40.548C129.968 40.372 129.982 39.228 129.982 37.116V14.72C129.982 13.752 129.953 13.224 129.894 13.136C129.806 12.9013 129.572 12.784 129.19 12.784H128.838L127.606 12.828C127.196 12.828 126.99 12.696 126.99 12.432C126.99 12.1973 127.357 12.0653 128.09 12.036C129.498 11.948 130.804 11.6253 132.006 11.068L132.93 10.628L133.282 10.496C133.517 11.3467 133.62 12.6373 133.59 14.368L133.546 17.492L133.59 39.052C133.59 39.932 133.605 40.46 133.634 40.636C133.664 40.7827 133.766 40.8853 133.942 40.944C133.972 40.9733 134.514 41.0027 135.57 41.032C136.245 41.032 136.582 41.1347 136.582 41.34Z" fill="black"/>
<path d="M124.188 36.852C124.188 37.1453 123.954 37.6733 123.484 38.436C123.044 39.1693 122.59 39.7707 122.12 40.24C120.859 41.5307 119.172 42.176 117.06 42.176C114.42 42.176 112.206 41.2227 110.416 39.316C108.656 37.4093 107.776 35.048 107.776 32.232C107.776 29.2987 108.612 26.8493 110.284 24.884C111.986 22.9187 114.098 21.936 116.62 21.936C118.703 21.936 120.448 22.552 121.856 23.784C123.264 24.9867 124.012 26.5413 124.1 28.448C123.162 28.5947 121.915 28.6533 120.36 28.624L117.28 28.58C117.075 28.58 115.315 28.624 112 28.712C111.854 29.68 111.78 30.604 111.78 31.484C111.78 34.4467 112.338 36.7347 113.452 38.348C114.596 39.932 116.195 40.724 118.248 40.724C119.422 40.724 120.36 40.46 121.064 39.932C121.768 39.404 122.531 38.392 123.352 36.896C123.47 36.6613 123.631 36.544 123.836 36.544C124.071 36.544 124.188 36.6467 124.188 36.852ZM120.36 27.876C120.243 24.356 118.982 22.596 116.576 22.596C114.2 22.596 112.719 24.356 112.132 27.876H120.36Z" fill="black"/>
<path d="M103.864 41.252C103.864 41.516 103.585 41.648 103.028 41.648L96.956 41.604C96.5453 41.604 95.944 41.6187 95.152 41.648C94.36 41.6773 93.7733 41.692 93.392 41.692C92.8053 41.692 92.512 41.5747 92.512 41.34C92.512 41.1053 93.2013 40.944 94.58 40.856C95.3133 40.7973 95.7387 40.68 95.856 40.504C95.9733 40.2987 96.032 39.6093 96.032 38.436V25.588H82.788V38.04C82.788 39.36 82.8907 40.1373 83.096 40.372C83.3013 40.6067 83.9907 40.768 85.164 40.856C85.9267 40.9147 86.308 41.0467 86.308 41.252C86.308 41.516 86.0147 41.648 85.428 41.648H85.032C84.328 41.648 83.58 41.6333 82.788 41.604C82.0253 41.5747 81.5707 41.56 81.424 41.56C81.0133 41.56 80.3973 41.5747 79.576 41.604C78.7547 41.6333 77.5227 41.648 75.88 41.648C75.2933 41.648 75 41.5307 75 41.296C75 41.0613 75.2933 40.9147 75.88 40.856C76.2613 40.8267 76.6573 40.7973 77.068 40.768C77.7133 40.7093 78.124 40.5627 78.3 40.328C78.388 40.1813 78.432 39.36 78.432 37.864V14.632C78.432 13.312 78.3587 12.5347 78.212 12.3C78.0947 12.0653 77.64 11.9333 76.848 11.904C75.9387 11.8453 75.396 11.8013 75.22 11.772C75.0733 11.7427 75 11.6253 75 11.42C75 11.1853 75.1907 11.068 75.572 11.068C75.6893 11.068 75.9387 11.0827 76.32 11.112C77.0533 11.1707 78.784 11.2 81.512 11.2C83.008 11.2 84.0493 11.1853 84.636 11.156C84.8413 11.1267 85.1053 11.112 85.428 11.112C85.956 11.112 86.22 11.2587 86.22 11.552C86.22 11.816 85.736 11.948 84.768 11.948C83.8293 11.948 83.2573 12.0653 83.052 12.3C82.876 12.5053 82.788 13.1947 82.788 14.368V24.488H96.032V15.028C96.032 13.4733 95.9147 12.564 95.68 12.3C95.4453 12.0067 94.624 11.8747 93.216 11.904C92.776 11.904 92.556 11.772 92.556 11.508C92.556 11.244 92.8053 11.112 93.304 11.112H93.524C93.9347 11.112 94.6533 11.112 95.68 11.112C96.736 11.1413 97.528 11.156 98.056 11.156C99.8453 11.156 101.048 11.1413 101.664 11.112C102.309 11.0827 102.72 11.068 102.896 11.068C103.512 11.068 103.82 11.2 103.82 11.464C103.82 11.728 103.175 11.8747 101.884 11.904C101.503 11.904 101.224 11.9333 101.048 11.992C100.755 12.08 100.564 12.2413 100.476 12.476C100.417 12.7107 100.388 13.4 100.388 14.544V37.952C100.388 39.36 100.461 40.1813 100.608 40.416C100.901 40.7387 101.752 40.9 103.16 40.9C103.629 40.8413 103.864 40.9587 103.864 41.252Z" fill="black"/>
<path d="M23.3226 25.6459C23.6955 26.0279 23.7026 26.6356 23.3386 27.0262L5.72974 45.9229C5.11072 46.5872 3.99814 46.1491 3.99814 45.2411L3.99814 8.30663C3.99814 7.40992 5.08731 6.96643 5.71371 7.60809L23.3226 25.6459Z" fill="url(#paint1_linear_2_29)"/>
<path d="M30.1116 27.0167C29.7591 26.6287 29.766 26.0344 30.1274 25.6548L47.2528 7.66238C47.8753 7.00841 48.9772 7.44897 48.9772 8.35182L48.9772 45.1934C48.9772 46.1076 47.8518 46.5425 47.237 45.8658L30.1116 27.0167Z" fill="url(#paint2_linear_2_29)"/>
<path d="M21.1938 31.5192C21.3828 31.3181 21.6465 31.204 21.9226 31.204L31.0528 31.204C31.3288 31.204 31.5925 31.3181 31.7815 31.5192L46.3946 47.0715C46.9945 47.7099 46.5418 48.7563 45.6659 48.7563L7.30947 48.7563C6.43349 48.7563 5.98087 47.7099 6.5807 47.0715L21.1938 31.5192Z" fill="#1E4E97"/>
<defs>
<linearGradient id="paint0_linear_2_29" x1="2" y1="1.5" x2="51.5" y2="51.5" gradientUnits="userSpaceOnUse">
<stop stop-color="#3D3D3C"/>
<stop offset="1" stop-color="#EEEEEE"/>
</linearGradient>
<linearGradient id="paint1_linear_2_29" x1="3.99814" y1="47.2936" x2="3.99814" y2="6.3383" gradientUnits="userSpaceOnUse">
<stop stop-color="#D9D9D9"/>
<stop offset="1" stop-color="#353535"/>
</linearGradient>
<linearGradient id="paint2_linear_2_29" x1="48.4774" y1="47.2936" x2="48.0018" y2="7.31315" gradientUnits="userSpaceOnUse">
<stop stop-color="white"/>
<stop offset="1" stop-color="#818180"/>
</linearGradient>
</defs>
</svg>
